<?xml version="1.0" standalone="no"?>
<!DOCTYPE svg PUBLIC "-//W3C//DTD SVG 20010904//EN"
 "http://www.w3.org/TR/2001/REC-SVG-20010904/DTD/svg10.dtd">
<svg version="1.0" xmlns="http://www.w3.org/2000/svg"
 width="64.000000pt" height="64.000000pt" viewBox="0 0 64.000000 64.000000"
 preserveAspectRatio="xMidYMid meet">

<g transform="translate(0.000000,64.000000) scale(0.100000,-0.100000)"
fill="#000000" stroke="none">
<path d="M90 526 l-45 -24 -3 -173 c-3 -190 2 -214 50 -254 29 -25 31 -25 228
-25 197 0 199 0 228 25 48 40 53 64 50 254 l-3 173 -45 24 c-43 23 -54 24
-230 24 -176 0 -187 -1 -230 -24z m201 -122 l29 -28 29 28 c80 77 211 30 211
-76 0 -107 -128 -155 -209 -79 l-31 29 -31 -29 c-81 -76 -209 -28 -209 79 0
106 131 153 211 76z"/>
<path d="M161 387 c-35 -17 -47 -61 -27 -92 31 -47 101 -44 139 6 18 25 18 28
3 51 -16 24 -55 48 -79 48 -7 0 -23 -6 -36 -13z m79 -52 c0 -11 -11 -15 -40
-15 -29 0 -40 4 -40 15 0 11 11 15 40 15 29 0 40 -4 40 -15z"/>
<path d="M402 387 c-36 -21 -55 -53 -42 -76 28 -54 95 -66 136 -25 41 40 19
98 -41 109 -17 3 -40 -1 -53 -8z m54 -31 c16 -17 19 -36 4 -36 -5 0 -10 -7
-10 -15 0 -21 -12 -19 -33 5 -20 24 -21 27 -4 45 16 18 25 18 43 1z"/>
</g>
</svg>
