<svg viewBox="0 0 24 24" xmlns="http://www.w3.org/2000/svg"><path d="m12 8-3 1.75v3.5l3 1.75 3-1.75v-3.5zm1.51687 2.03949-1.53034.8927-1.51687-.88477 1.53034-.8927zm-3.5271.88269 1.48461.866v1.75043l-1.48461-.866zm2.47435 2.65234v-1.76623l1.54617-.90192v1.76624z"/><path d="m3 0-3 1.75v3.5l3 1.75 3-1.75v-3.5zm1.51684 2.03949-1.53034.8927-1.51687-.88477 1.53037-.8927zm-3.5271.88269 1.48461.866v1.75046l-1.48461-.866zm2.47435 2.65234v-1.76623l1.54617-.90192v1.76624z"/><path d="m3 17-3 1.75v3.5l3 1.75 3-1.75v-3.5zm1.51687 2.03949-1.53034.8927-1.51687-.88477 1.53034-.8927zm-3.5271.88269 1.48461.866v1.75043l-1.48461-.866zm2.47435 2.65234v-1.76623l1.54617-.90192v1.76624z"/><path d="m21 0-3 1.75v3.5l3 1.75 3-1.75v-3.5zm1.51687 2.03949-1.53034.8927-1.51687-.88477 1.53034-.8927zm-3.5271.88269 1.48461.866v1.75046l-1.48461-.866zm2.47435 2.65234v-1.76623l1.54617-.90192v1.76624z"/><path d="m21 17-3 1.75v3.5l3 1.75 3-1.75v-3.5zm1.51687 2.03949-1.53034.8927-1.51687-.88477 1.53034-.8927zm-3.5271.88269 1.48461.866v1.75043l-1.48461-.866zm2.47435 2.65234v-1.76623l1.54617-.90192v1.76624z"/><path d="m9 3h6v1h-6z"/><path d="m9 20h6v1h-6z"/><path d="m0 11.5h6v1h-6z" transform="matrix(0 1 -1 0 15 9)"/><path d="m5.08579 6.91421h3v1h-3z" transform="matrix(-.70710678 -.70710678 .70710678 -.70710678 6 17.31371)"/><path d="m15.91421 7.08579h3v1h-3z" transform="matrix(.70710678 -.70710678 .70710678 .70710678 -.26346 14.53553)"/><path d="m5.21447 15.08579h3v1h-3z" transform="matrix(-.70710678 .70710678 -.70710678 -.70710678 22.48313 21.85876)"/><path d="m16.08579 15.04289h3v1h-3z" transform="matrix(.70710678 .70710678 -.70710678 .70710678 16.14124 -7.88262)"/><path d="m18 11.5h6v1h-6z" transform="matrix(0 1 -1 0 33 -9)"/></svg>